<?xml version="1.0" encoding="utf-8"?>
<!-- Generator: Adobe Illustrator 27.5.0, SVG Export Plug-In . SVG Version: 6.00 Build 0)  -->
<svg version="1.1" xmlns="http://www.w3.org/2000/svg" xmlns:xlink="http://www.w3.org/1999/xlink" x="0px" y="0px"
	 viewBox="0 0 1122 1122" style="enable-background:new 0 0 1122 1122;" xml:space="preserve">
<g id="Bg">
	<rect style="fill:#FFFFFF;" width="60" height="60"/>
</g>
<g id="Object">
	<g>
		<path style="fill:none;" d="M413.81,482.207c0,7.481,18.52,21.219,48.806,21.219c30.252,0,48.778-13.738,48.778-21.219
			c0-7.487-18.526-21.225-48.778-21.225C432.33,460.982,413.81,474.72,413.81,482.207z"/>
		<path style="fill:none;" d="M725.248,426.008c-72.207-5.306-270.4-51.755-270.4-51.755
			c-11.972,21.328-43.329,48.417-67.854,65.822c-0.87,3.792-1.723,7.593-2.347,11.491c-1.308,8.38-2.219,16.886-2.219,25.621
			c0,6.222,0.41,12.361,1.088,18.437c1.157,10.355,3.334,20.415,6.319,30.143c21.861,71.068,90.256,123.095,171.157,123.095
			c80.88,0,149.268-52.047,171.14-123.095c3.002-9.748,5.177-19.788,6.316-30.16c0.681-6.059,1.062-12.198,1.062-18.42
			c0-8.735-0.885-17.241-2.195-25.621c-1.363-8.672-3.523-17.075-6.159-25.286C729.292,426.259,727.329,426.177,725.248,426.008z
			 M650.162,526.764c-20.767,0-39.439-5.455-52.593-14.13l0.011,0.026l-38.746-22.759l-44.362,23.234
			c-3.429,2.195-7.195,4.19-11.285,5.913l-0.023,0.017c-11.565,4.854-25.518,7.699-40.547,7.699
			c-39.845,0-72.144-19.94-72.144-44.556c0-24.602,32.299-44.563,72.144-44.563h94.302l85.962,0.235
			c2.376-0.149,4.826-0.235,7.281-0.235c39.837,0,72.133,19.96,72.133,44.563C722.295,506.824,689.999,526.764,650.162,526.764z"/>
		<path style="fill:none;" d="M601.361,482.207c0,7.481,18.526,21.219,48.801,21.219c30.281,0,48.807-13.738,48.807-21.219
			c0-7.487-18.526-21.225-48.807-21.225C619.887,460.982,601.361,474.72,601.361,482.207z"/>
		<path style="fill:none;" d="M786.027,480.94v-15.848c0-9.316-6.654-16.929-15.558-19.273c-0.79,2.862-1.692,5.664-2.584,8.486
			c0.965,7.508,1.692,15.103,1.692,22.882c0,8.028-0.633,15.91-1.597,23.686C778.154,499.463,786.027,491.102,786.027,480.94z"/>
		<path style="fill:#AAD4C8;" d="M267.126,847.484h587.725c-0.512-32.361-9.51-62.562-24.837-88.698H291.971
			C276.659,784.922,267.652,815.123,267.126,847.484z"/>
		<polygon style="fill:#616E7D;" points="267.126,847.484 267.08,848.75 267,850.407 267,938.716 855,938.716 855,850.407 
			854.897,848.75 854.851,847.484 		"/>
		<path style="fill:#616E7D;" d="M686.673,669.146c-4.508-0.352-9.039-0.681-13.637-0.681h-49.368
			c0,34.6-28.068,62.668-62.674,62.668c-34.616,0-62.679-28.068-62.685-62.668h-49.362c-4.588,0-9.119,0.329-13.626,0.681
			c-60.748,4.522-113.063,38.879-142.631,88.369l-0.719,1.271h538.043l-0.73-1.271C799.719,708.025,747.427,673.668,686.673,669.146
			z"/>
		<path style="fill:#FFFFFF;" d="M498.738,668.465h-0.429c0.006,34.6,28.068,62.668,62.685,62.668
			c34.605,0,62.674-28.068,62.674-62.668h-0.429c-19.68,5.953-40.533,9.29-62.245,9.29
			C539.277,677.755,518.432,674.418,498.738,668.465z"/>
		<path style="fill:#616E7D;" d="M305.887,465.092v15.848c0,27.092,22.931,49.144,51.108,49.144h2.999
			c18.752,65.756,71.454,118.032,138.744,138.381c19.694,5.953,40.538,9.29,62.256,9.29c21.712,0,42.565-3.337,62.245-9.29
			c67.318-20.349,120.006-72.625,138.727-138.381h3.031c28.163,0,51.077-22.052,51.077-49.144v-15.848
			c0-23.477-17.256-43.065-40.203-47.899c0.824-7.076,1.382-14.231,1.382-21.512l-0.103-2.052
			c0.054-5.206-0.146-10.578-0.825-16.368v-0.023c-3.159-33.518-14.823-64.528-32.836-90.874
			c-9.285-13.589-20.363-25.827-32.699-36.635c-32.997-28.858-75.793-46.672-122.8-47.816l-2.396-1.869
			c-2.012-2.218-4.227-2.613-5.741-2.613c-3.515,0-5.971,2.324-7.974,4.253h-0.655c-11.351-11.385-19.88-18.401-27.198-18.401h-0.04
			c-7.012,0.518-39.691,12.155-50.135,19.997c-2.324,1.746-4.94,3.984-7.699,6.434c-80.316,23.732-138.962,97.948-138.962,185.965
			c0,1.351,0.106,2.656,0.138,3.981c-0.1,5.916,0.097,11.766,0.655,17.531C324.141,421.323,305.887,440.988,305.887,465.092z
			 M770.469,445.819c8.904,2.344,15.558,9.957,15.558,19.273v15.848c0,10.163-7.873,18.523-18.048,19.934
			c0.965-7.776,1.597-15.659,1.597-23.686c0-7.779-0.727-15.375-1.692-22.882C768.777,451.483,769.679,448.681,770.469,445.819z
			 M384.648,451.566c0.624-3.898,1.477-7.699,2.347-11.491c24.525-17.404,55.881-44.493,67.854-65.822
			c0,0,198.192,46.448,270.4,51.755c2.081,0.169,4.044,0.251,5.91,0.272c2.636,8.211,4.797,16.614,6.159,25.286
			c1.311,8.38,2.195,16.886,2.195,25.621c0,6.222-0.381,12.361-1.062,18.42c-1.139,10.372-3.314,20.412-6.316,30.16
			c-21.872,71.048-90.261,123.095-171.14,123.095c-80.902,0-149.297-52.027-171.157-123.095c-2.985-9.728-5.163-19.788-6.319-30.143
			c-0.678-6.076-1.088-12.215-1.088-18.437C382.43,468.452,383.34,459.946,384.648,451.566z M335.95,465.092
			c0-10.02,7.659-18.151,17.61-19.748c0.04,3.858,0.172,7.653,0.266,11.488c-0.819,6.706-1.428,13.466-1.428,20.355
			c0,8.028,0.627,15.91,1.6,23.686c-10.166-1.411-18.048-9.771-18.048-19.934V465.092z"/>
		<path style="fill:#616E7D;" d="M722.295,482.207c0-24.602-32.296-44.563-72.133-44.563c-2.455,0-4.906,0.086-7.281,0.235
			l-85.962-0.235h-94.302c-39.845,0-72.144,19.96-72.144,44.563c0,24.617,32.299,44.556,72.144,44.556
			c15.029,0,28.982-2.845,40.547-7.699l0.023-0.017c4.09-1.723,7.856-3.718,11.285-5.913l44.362-23.234l38.746,22.759l-0.011-0.026
			c13.154,8.675,31.826,14.13,52.593,14.13C689.999,526.764,722.295,506.824,722.295,482.207z M462.616,503.427
			c-30.286,0-48.806-13.738-48.806-21.219c0-7.487,18.52-21.225,48.806-21.225c30.252,0,48.778,13.738,48.778,21.225
			C511.395,489.689,492.869,503.427,462.616,503.427z M601.361,482.207c0-7.487,18.526-21.225,48.801-21.225
			c30.281,0,48.807,13.738,48.807,21.225c0,7.481-18.526,21.219-48.807,21.219C619.887,503.427,601.361,489.689,601.361,482.207z"/>
	</g>
</g>
</svg>
